<?xml version="1.0" standalone="no"?>
<!DOCTYPE svg PUBLIC "-//W3C//DTD SVG 20010904//EN"
 "http://www.w3.org/TR/2001/REC-SVG-20010904/DTD/svg10.dtd">
<svg version="1.0" xmlns="http://www.w3.org/2000/svg"
 width="640.000000pt" height="640.000000pt" viewBox="0 0 640.000000 640.000000"
 preserveAspectRatio="xMidYMid meet">

<g transform="translate(0.000000,640.000000) scale(0.100000,-0.100000)"
fill="#000000" stroke="none">
<path d="M2857 5328 c6 -65 9 -75 19 -65 9 8 -6 127 -16 127 -4 0 -6 -28 -3
-62z"/>
<path d="M2720 5342 c0 -17 5 -34 10 -37 6 -3 10 -19 10 -36 0 -16 5 -29 10
-29 13 0 13 -2 -5 66 -17 68 -25 79 -25 36z"/>
<path d="M3000 5316 c0 -26 4 -45 9 -42 10 7 9 71 -2 82 -4 4 -7 -14 -7 -40z"/>
<path d="M3055 5350 c5 -7 12 -27 16 -44 7 -29 8 -29 6 8 -1 24 -8 41 -16 44
-9 3 -11 0 -6 -8z"/>
<path d="M3117 5352 c6 -4 13 -25 16 -47 4 -40 4 -40 5 8 2 39 -1 47 -15 47
-12 0 -14 -3 -6 -8z"/>
<path d="M3180 5293 c0 -81 8 -79 16 5 4 42 2 62 -5 62 -7 0 -11 -25 -11 -67z"/>
<path d="M3240 5352 c0 -6 5 -14 11 -18 6 -3 8 -18 5 -33 -5 -19 -4 -22 4 -11
14 22 12 46 -5 60 -9 8 -15 9 -15 2z"/>
<path d="M3365 5300 c0 -45 11 -53 21 -14 4 16 2 31 -7 39 -12 12 -14 8 -14
-25z"/>
<path d="M3297 5323 c-10 -9 -9 -51 1 -57 5 -3 9 10 10 29 1 36 0 40 -11 28z"/>
<path d="M3424 5304 c3 -9 6 -29 6 -45 0 -17 4 -28 8 -25 11 7 2 86 -10 86 -6
0 -7 -7 -4 -16z"/>
<path d="M3484 5278 c3 -13 6 -34 6 -47 0 -15 4 -21 9 -15 11 12 2 84 -11 84
-6 0 -8 -10 -4 -22z"/>
<path d="M2671 5270 c-1 -29 15 -50 38 -50 11 0 9 4 -6 15 -12 8 -24 25 -26
38 -4 20 -4 20 -6 -3z"/>
<path d="M2623 5240 c25 -45 43 -54 25 -12 -15 34 -28 52 -38 52 -5 0 1 -18
13 -40z"/>
<path d="M2550 5255 c0 -12 35 -75 41 -75 4 0 0 18 -8 40 -9 22 -20 40 -25 40
-4 0 -8 -2 -8 -5z"/>
<path d="M3567 5253 c-11 -10 -8 -61 3 -68 7 -4 9 2 4 19 -4 16 -1 32 6 41 12
15 0 22 -13 8z"/>
<path d="M3630 5239 c0 -11 4 -18 10 -14 5 3 7 12 3 20 -7 21 -13 19 -13 -6z"/>
<path d="M2399 5225 c-4 -3 -4 -18 -1 -32 5 -24 6 -25 12 -8 6 17 11 14 38
-23 17 -24 33 -38 37 -32 7 11 -77 105 -86 95z"/>
<path d="M2500 5223 c1 -5 9 -24 20 -43 23 -41 27 -23 5 20 -15 29 -25 38 -25
23z"/>
<path d="M3666 5193 c-22 -46 -17 -50 11 -8 13 19 19 36 14 39 -4 3 -15 -11
-25 -31z"/>
<path d="M3727 5162 c-18 -20 -23 -62 -7 -62 5 0 7 7 3 15 -3 9 3 25 12 35 10
11 16 22 13 25 -3 3 -12 -3 -21 -13z"/>
<path d="M3792 5140 c0 -14 2 -19 5 -12 2 6 2 18 0 25 -3 6 -5 1 -5 -13z"/>
<path d="M2295 5130 c-3 -5 -3 -10 2 -11 45 -3 79 -11 103 -24 28 -15 30 -14
30 4 0 11 -4 23 -10 26 -6 3 -7 -1 -4 -9 8 -20 5 -20 -51 4 -53 23 -61 24 -70
10z"/>
<path d="M3793 5093 c-7 -2 -13 -17 -12 -31 0 -16 3 -21 6 -12 3 8 12 23 21
33 15 17 9 20 -15 10z"/>
<path d="M3883 5070 c-13 -5 -23 -13 -23 -18 0 -5 -11 -14 -25 -20 -14 -6 -25
-16 -25 -21 0 -8 90 46 109 65 7 7 -13 3 -36 -6z"/>
<path d="M2366 5047 c3 -10 9 -15 12 -12 3 3 0 11 -7 18 -10 9 -11 8 -5 -6z"/>
<path d="M2850 4880 c-204 -39 -473 -102 -690 -159 -207 -55 -243 -67 -236
-79 3 -5 38 -21 78 -37 40 -16 126 -55 191 -87 65 -32 122 -58 127 -58 15 0
12 -20 -9 -66 -45 -98 -55 -155 -56 -294 0 -122 3 -143 29 -222 50 -154 139
-291 280 -430 43 -43 76 -78 71 -78 -4 0 -38 11 -76 25 -258 93 -587 140 -810
116 -249 -27 -374 -99 -449 -256 -88 -187 -52 -451 106 -769 159 -320 451
-662 772 -904 197 -149 382 -254 611 -349 46 -19 100 -45 120 -58 58 -38 118
-55 199 -55 95 0 147 16 186 56 20 21 144 88 356 193 178 89 329 166 335 170
5 5 47 21 93 36 l83 27 152 -21 c303 -42 455 -52 486 -32 24 15 5 38 -46 55
-41 13 -301 56 -342 56 -33 0 9 13 260 80 400 107 366 95 372 137 13 79 -25
171 -90 216 -66 45 -119 59 -255 64 -71 3 -128 8 -128 10 0 2 21 34 46 71 150
219 245 543 231 787 -14 242 -102 397 -270 480 -87 42 -150 55 -274 55 -158 0
-393 -59 -578 -144 -41 -19 -75 -33 -75 -30 0 3 18 28 39 57 152 203 223 397
223 607 0 117 -17 201 -63 317 -16 42 -28 77 -27 78 2 2 39 22 83 45 44 24 85
47 92 52 20 16 30 1 37 -55 6 -45 3 -62 -16 -101 -27 -56 -18 -81 31 -81 29 0
33 -4 51 -53 21 -56 19 -75 -5 -65 -9 3 -15 -1 -15 -11 0 -9 7 -16 15 -16 8 0
15 -7 15 -16 0 -12 7 -15 25 -12 14 3 25 2 25 -1 0 -3 24 -6 54 -6 39 0 60 5
75 19 36 33 27 63 -41 129 l-63 60 43 -22 c72 -37 149 -89 155 -106 10 -25 -3
-45 -30 -45 -15 0 -23 -5 -20 -12 5 -15 44 -13 64 3 7 6 13 24 13 39 0 37 -52
82 -155 135 -73 39 -76 41 -70 71 6 34 -8 56 -82 127 -24 22 -43 43 -43 47 0
4 41 28 91 54 50 27 87 52 82 56 -4 4 -46 14 -93 23 -98 19 -817 158 -964 187
-125 25 -149 24 -326 -10z m977 -524 c89 -234 82 -449 -23 -674 -42 -92 -123
-214 -202 -307 -33 -38 -59 -71 -58 -73 2 -1 52 22 112 52 236 117 454 178
639 180 175 1 288 -37 383 -131 192 -190 191 -624 0 -1008 -57 -114 -126 -214
-162 -236 -17 -10 -61 -42 -98 -71 -61 -48 -73 -53 -145 -64 -43 -6 -100 -22
-127 -34 -55 -27 -170 -129 -192 -172 -8 -15 -28 -34 -44 -43 -63 -33 -54 -12
33 76 129 132 257 349 325 554 107 321 43 567 -167 645 -246 93 -542 9 -846
-238 -44 -36 -86 -70 -93 -75 -8 -7 -30 1 -70 25 -162 98 -383 180 -552 205
-233 34 -429 -33 -494 -172 -78 -164 29 -441 283 -731 143 -164 371 -346 506
-405 117 -50 157 -71 149 -79 -9 -8 -117 -36 -193 -49 -51 -10 -91 -48 -91
-87 0 -34 33 -97 77 -145 20 -22 34 -41 32 -43 -2 -2 -52 17 -111 44 -383 172
-776 486 -1038 830 -369 485 -483 974 -279 1203 55 62 116 98 219 127 107 31
361 39 520 16 156 -23 354 -75 496 -131 66 -26 127 -49 137 -52 37 -12 14 17
-58 72 -91 69 -211 196 -270 285 -89 134 -130 237 -147 377 -11 81 -10 102 9
195 11 56 32 129 46 161 l26 57 718 0 719 0 31 -84z m403 -102 c51 -48 65 -86
34 -98 -27 -10 -31 -7 -31 23 0 16 -7 40 -16 53 -9 13 -24 33 -33 46 -26 35
-7 26 46 -24z m-24 -61 c4 -16 2 -28 -7 -34 -23 -14 -26 -11 -32 34 -2 23 -8
51 -12 62 -5 16 -1 14 19 -8 14 -15 29 -39 32 -54z m-149 -1185 c94 -31 162
-98 186 -184 47 -169 -9 -423 -150 -672 -94 -167 -211 -304 -278 -327 -43 -14
-48 -34 -18 -67 18 -20 13 -22 -102 -38 -81 -12 -459 -87 -570 -114 -33 -8
-61 -13 -63 -12 -1 2 11 29 28 61 37 70 28 87 -25 51 -59 -40 -96 -43 -170
-11 -265 112 -586 421 -733 704 -60 116 -82 188 -82 272 0 110 49 176 164 223
76 31 278 30 396 -2 149 -40 312 -110 444 -190 37 -23 71 -42 75 -42 4 0 33
24 65 53 145 131 355 255 501 296 101 28 244 28 332 -1z m723 -879 c119 -19
187 -61 221 -134 25 -53 25 -132 2 -139 -39 -12 -465 -126 -470 -126 -3 0 1 8
10 18 41 45 60 170 34 222 -16 32 -71 60 -119 60 -20 0 -39 4 -43 10 -5 9 13
21 118 78 47 25 136 29 247 11z m-315 -229 c10 -17 -51 -46 -212 -100 -133
-45 -158 -51 -180 -41 -20 9 -23 14 -13 26 21 25 104 72 158 90 96 31 235 45
247 25z m-600 -219 c65 -29 107 -70 103 -100 -3 -23 -33 -41 -318 -183 -173
-86 -318 -157 -322 -157 -5 -1 -8 9 -8 22 0 43 -29 123 -61 166 -40 56 -91 77
-220 94 -70 10 -96 16 -79 20 61 16 371 82 545 117 216 43 301 48 360 21z
m485 -1 c-14 -4 -36 -8 -50 -8 l-25 0 25 8 c14 4 36 8 50 8 l25 0 -25 -8z
m-1329 -180 c52 -5 109 -14 125 -21 l29 -11 -25 -10 c-14 -5 -83 -28 -155 -50
-71 -22 -132 -42 -134 -44 -8 -7 46 -44 114 -77 88 -44 161 -60 248 -55 75 3
84 -6 43 -46 -30 -31 -121 -50 -195 -41 -110 13 -205 76 -295 196 -36 48 -46
69 -46 100 0 32 5 41 28 53 32 18 123 20 263 6z m245 -135 c13 -27 24 -62 24
-76 0 -24 -5 -27 -46 -34 -52 -7 -106 -1 -179 22 -58 18 -145 63 -145 74 0 5
17 13 38 19 20 5 84 25 142 44 122 39 125 38 166 -49z"/>
<path d="M2455 4238 c18 -90 56 -144 118 -167 72 -27 170 -1 221 60 30 35 39
55 51 107 6 28 4 32 -13 32 -15 0 -22 -11 -31 -43 -6 -24 -19 -55 -30 -69 -45
-57 -145 -75 -207 -38 -34 22 -74 90 -74 128 0 16 -6 22 -21 22 -18 0 -20 -4
-14 -32z"/>
<path d="M3230 4242 c0 -16 12 -53 28 -83 38 -75 84 -102 169 -96 102 7 178
73 190 166 5 37 3 41 -16 41 -16 0 -21 -6 -21 -29 0 -33 -33 -85 -72 -114 -40
-30 -124 -34 -165 -8 -42 26 -64 61 -70 111 -4 30 -10 40 -24 40 -14 0 -19 -7
-19 -28z"/>
<path d="M2635 3833 c20 -108 116 -193 270 -239 85 -25 251 -25 325 0 134 46
210 135 210 245 0 52 -27 38 -39 -21 -28 -129 -124 -194 -301 -205 -198 -12
-388 84 -422 212 -9 33 -17 45 -31 45 -17 0 -18 -5 -12 -37z"/>
<path d="M1540 1094 c-2 -31 -2 -145 -1 -179 1 -26 4 -35 10 -27 8 14 4 202
-4 211 -3 2 -5 0 -5 -5z"/>
<path d="M3768 1089 c-10 -5 -18 -21 -18 -34 0 -13 -5 -27 -11 -31 -8 -4 -8
-9 0 -17 6 -6 11 -37 11 -69 0 -32 4 -58 10 -58 6 0 10 26 10 59 0 38 5 61 13
65 10 5 10 7 0 12 -18 8 -16 51 2 58 8 3 15 10 15 16 0 13 -10 12 -32 -1z"/>
<path d="M1480 985 c0 -63 4 -105 10 -105 6 0 10 42 10 105 0 63 -4 105 -10
105 -6 0 -10 -42 -10 -105z"/>
<path d="M3030 1054 c0 -29 -3 -35 -16 -30 -40 16 -73 -41 -59 -104 8 -36 39
-57 60 -40 8 7 19 9 25 5 7 -4 10 29 10 99 0 64 -4 106 -10 106 -5 0 -10 -16
-10 -36z m-5 -104 c0 -39 -3 -45 -22 -48 -17 -3 -24 3 -29 22 -10 43 3 78 29
74 19 -3 22 -9 22 -48z"/>
<path d="M1430 980 c0 -60 4 -100 10 -100 6 0 10 40 10 100 0 60 -4 100 -10
100 -6 0 -10 -40 -10 -100z"/>
<path d="M1897 1074 c-8 -8 1 -24 14 -24 5 0 9 7 9 15 0 15 -12 20 -23 9z"/>
<path d="M2250 1065 c0 -8 5 -15 10 -15 6 0 10 7 10 15 0 8 -4 15 -10 15 -5 0
-10 -7 -10 -15z"/>
<path d="M2606 1049 c-10 -51 -7 -171 4 -164 6 3 11 41 11 83 l1 77 20 -82
c11 -46 24 -83 29 -83 8 0 22 43 35 108 11 55 24 35 24 -38 0 -46 4 -70 11
-70 9 0 10 20 6 68 -4 37 -7 82 -7 100 0 60 -26 36 -45 -43 -10 -41 -21 -73
-23 -70 -2 2 -11 34 -21 71 -19 75 -35 91 -45 43z"/>
<path d="M2780 1065 c0 -8 5 -15 10 -15 6 0 10 7 10 15 0 8 -4 15 -10 15 -5 0
-10 -7 -10 -15z"/>
<path d="M3240 1070 c0 -5 9 -10 20 -10 19 0 20 -7 20 -90 0 -116 18 -118 22
-2 3 82 4 87 26 90 44 7 21 22 -33 22 -30 0 -55 -4 -55 -10z"/>
<path d="M4190 1065 c0 -8 5 -15 10 -15 6 0 10 7 10 15 0 8 -4 15 -10 15 -5 0
-10 -7 -10 -15z"/>
<path d="M4540 980 l0 -100 40 0 c22 0 40 5 40 10 0 6 -13 10 -30 10 l-30 0 0
90 c0 53 -4 90 -10 90 -6 0 -10 -40 -10 -100z"/>
<path d="M4640 1065 c0 -8 5 -15 10 -15 6 0 10 7 10 15 0 8 -4 15 -10 15 -5 0
-10 -7 -10 -15z"/>
<path d="M2189 1058 c-1 -5 -2 -11 -3 -15 -1 -5 -4 -12 -7 -18 -10 -16 10
-138 24 -147 6 -4 16 -3 22 3 7 7 4 13 -7 20 -24 13 -26 99 -3 99 8 0 15 7 15
16 0 8 -5 12 -10 9 -6 -3 -14 4 -19 17 -6 13 -11 20 -12 16z"/>
<path d="M1745 1020 c-3 -5 -12 -7 -20 -3 -12 4 -15 -8 -15 -66 0 -41 4 -71
10 -71 6 0 10 25 10 55 0 42 4 57 16 62 23 8 34 -14 34 -69 0 -68 18 -60 22 9
2 46 7 59 21 61 14 3 17 -5 17 -52 0 -30 5 -58 10 -61 6 -4 10 18 10 58 0 74
-14 96 -50 77 -16 -9 -25 -9 -33 -1 -14 14 -24 14 -32 1z"/>
<path d="M1985 1020 c-3 -5 -12 -7 -20 -3 -12 4 -15 -8 -15 -66 0 -85 18 -96
22 -13 3 50 6 57 26 60 21 3 22 0 22 -57 0 -34 4 -61 10 -61 6 0 10 28 10 65
0 53 -3 66 -19 75 -24 12 -28 13 -36 0z"/>
<path d="M2087 1023 c-11 -10 -8 -25 3 -18 11 7 40 -11 40 -24 0 -4 -13 -12
-30 -18 -25 -10 -30 -17 -30 -46 0 -36 24 -57 43 -38 5 5 16 7 23 4 21 -8 19
110 -2 131 -16 17 -36 21 -47 9z m43 -92 c0 -10 -6 -24 -14 -30 -12 -10 -17
-9 -24 6 -13 24 -4 43 19 43 12 0 19 -7 19 -19z"/>
<path d="M2348 1024 c-4 -3 -14 -7 -25 -8 -15 -2 -18 -11 -16 -47 1 -24 2 -55
2 -68 1 -39 11 -18 12 25 3 98 59 105 59 8 0 -30 5 -54 10 -54 16 0 12 103 -6
128 -15 22 -26 27 -36 16z"/>
<path d="M2448 1019 c-24 -13 -33 -72 -18 -110 11 -26 18 -30 42 -27 21 4 28
1 28 -13 0 -24 -22 -39 -48 -32 -25 6 -30 -12 -6 -21 25 -9 33 -7 54 14 17 17
20 33 20 105 0 67 -3 85 -14 85 -8 0 -20 2 -28 5 -7 2 -21 0 -30 -6z m50 -65
c3 -45 -18 -65 -44 -43 -29 24 -13 92 20 87 17 -2 22 -11 24 -44z"/>
<path d="M2871 1021 c-8 -5 -20 -7 -28 -4 -10 4 -13 -11 -13 -66 0 -41 4 -71
10 -71 6 0 10 20 10 44 0 57 8 76 30 76 22 0 30 -19 30 -76 0 -24 5 -44 10
-44 14 0 12 90 -3 119 -14 28 -26 34 -46 22z"/>
<path d="M3096 1015 c-23 -23 -20 -40 10 -69 31 -28 27 -62 -6 -51 -23 7 -28
-10 -5 -19 24 -9 45 4 52 32 5 20 0 30 -22 48 -30 24 -29 62 1 50 10 -4 14 -1
12 6 -7 19 -24 20 -42 3z"/>
<path d="M3385 1021 c-3 -6 -12 -8 -20 -4 -12 4 -15 -8 -15 -66 0 -81 15 -96
22 -21 3 28 13 59 22 69 10 11 13 21 7 25 -5 4 -12 2 -16 -3z"/>
<path d="M3437 1023 c-10 -10 -8 -25 2 -19 13 8 41 -4 41 -18 0 -6 -13 -17
-30 -23 -24 -9 -30 -17 -30 -41 0 -37 17 -52 53 -45 26 5 27 8 27 63 0 40 -5
64 -16 74 -16 17 -36 21 -47 9z m43 -97 c0 -27 -28 -43 -36 -21 -9 21 3 45 21
45 9 0 15 -9 15 -24z"/>
<path d="M3571 1021 c-8 -5 -20 -7 -28 -4 -10 4 -13 -11 -13 -66 0 -41 4 -71
10 -71 6 0 10 20 10 44 0 57 8 76 30 76 22 0 30 -19 30 -76 0 -26 5 -44 11
-44 15 0 4 117 -12 136 -13 16 -19 17 -38 5z"/>
<path d="M3666 1014 c-22 -22 -20 -41 9 -66 38 -33 32 -55 -12 -49 -18 3 -16
-16 2 -23 24 -9 45 4 52 32 5 20 0 30 -22 48 -29 23 -30 59 0 48 10 -4 15 0
15 10 0 20 -24 21 -44 0z"/>
<path d="M3820 1010 c-13 -13 -20 -33 -20 -60 0 -39 26 -80 50 -80 6 0 19 9
30 20 27 27 28 100 2 123 -24 22 -38 21 -62 -3z m48 -12 c17 -17 15 -83 -3
-98 -12 -10 -18 -10 -30 0 -27 22 -15 110 15 110 3 0 11 -5 18 -12z"/>
<path d="M3966 1021 c-4 -7 -14 -10 -22 -7 -11 4 -14 -9 -14 -64 0 -40 4 -70
10 -70 6 0 10 25 10 55 0 39 4 56 16 63 9 5 15 15 12 23 -3 10 -6 10 -12 0z"/>
<path d="M4036 1021 c-4 -6 -13 -8 -21 -4 -12 4 -15 -8 -15 -66 0 -85 18 -96
22 -13 3 49 6 57 23 57 17 0 20 -8 23 -57 4 -74 22 -76 22 -3 0 42 4 57 16 62
23 8 34 -14 34 -69 0 -27 5 -48 10 -48 14 0 12 91 -3 120 -9 16 -20 24 -33 22
-32 -5 -38 -5 -55 2 -10 4 -20 3 -23 -3z"/>
<path d="M4275 1020 c-3 -5 -12 -7 -20 -3 -12 4 -15 -8 -15 -66 0 -41 4 -71
10 -71 6 0 10 20 10 44 0 57 8 76 31 76 17 0 19 -8 19 -60 0 -33 4 -60 10 -60
6 0 10 28 10 65 0 53 -3 66 -19 75 -24 12 -28 13 -36 0z"/>
<path d="M4377 1012 c-19 -21 -23 -83 -6 -114 8 -16 17 -19 40 -14 19 4 29 1
29 -7 0 -24 -18 -39 -44 -39 -14 0 -26 -4 -26 -9 0 -14 20 -21 45 -15 31 8 45
52 45 137 0 61 -2 69 -19 69 -11 0 -26 2 -33 5 -8 3 -22 -3 -31 -13z m59 -39
c9 -33 -11 -75 -34 -71 -21 4 -30 72 -12 93 16 19 39 8 46 -22z"/>
<path d="M4763 1010 c-6 -14 -14 -40 -18 -59 -8 -40 -20 -27 -30 31 -6 35 -25
54 -25 26 0 -30 34 -128 44 -125 12 4 47 116 43 137 -3 10 -7 7 -14 -10z"/>
<path d="M4828 1023 c-9 -2 -22 -20 -28 -39 -21 -63 17 -126 66 -107 21 8 17
25 -4 19 -21 -7 -58 27 -47 43 3 6 22 11 41 11 26 0 34 4 34 18 0 19 -27 63
-38 61 -4 -1 -15 -3 -24 -6z m30 -25 c16 -16 15 -25 -3 -32 -27 -10 -46 4 -34
25 11 22 20 24 37 7z"/>
<path d="M4922 1018 c-19 -19 -14 -55 9 -72 25 -17 22 -52 -4 -48 -9 2 -17 -2
-17 -7 0 -17 19 -22 40 -11 28 15 27 63 -2 82 -26 17 -19 52 8 41 12 -4 15 -2
12 8 -6 19 -30 23 -46 7z"/>
<path d="M1590 961 c0 -66 18 -98 48 -82 9 4 23 6 30 4 9 -3 12 14 12 66 0 85
-18 96 -22 14 -3 -51 -6 -58 -25 -61 -22 -3 -23 0 -23 57 0 34 -4 61 -10 61
-6 0 -10 -26 -10 -59z"/>
<path d="M1900 950 c0 -40 4 -70 10 -70 6 0 10 30 10 70 0 40 -4 70 -10 70 -6
0 -10 -30 -10 -70z"/>
<path d="M2250 950 c0 -40 4 -70 10 -70 6 0 10 30 10 70 0 40 -4 70 -10 70 -6
0 -10 -30 -10 -70z"/>
<path d="M2780 950 c0 -40 4 -70 10 -70 6 0 10 30 10 70 0 40 -4 70 -10 70 -6
0 -10 -30 -10 -70z"/>
<path d="M4190 950 c0 -40 4 -70 10 -70 6 0 10 30 10 70 0 40 -4 70 -10 70 -6
0 -10 -30 -10 -70z"/>
<path d="M4640 950 c0 -40 4 -70 10 -70 6 0 10 30 10 70 0 40 -4 70 -10 70 -6
0 -10 -30 -10 -70z"/>
<path d="M3167 904 c-8 -8 1 -24 14 -24 5 0 9 7 9 15 0 15 -12 20 -23 9z"/>
<path d="M4997 903 c-12 -11 -8 -23 8 -23 8 0 15 7 15 15 0 16 -12 20 -23 8z"/>
</g>
</svg>
